<?xml version="1.0" encoding="UTF-8" standalone="no"?>
<!-- Created with Inkscape (http://www.inkscape.org/) -->

<svg
   xmlns:dc="http://purl.org/dc/elements/1.1/"
   xmlns:cc="http://creativecommons.org/ns#"
   xmlns:rdf="http://www.w3.org/1999/02/22-rdf-syntax-ns#"
   xmlns:svg="http://www.w3.org/2000/svg"
   xmlns="http://www.w3.org/2000/svg"
   xmlns:sodipodi="http://sodipodi.sourceforge.net/DTD/sodipodi-0.dtd"
   xmlns:inkscape="http://www.inkscape.org/namespaces/inkscape"
   width="210mm"
   height="297mm"
   viewBox="0 0 744.09448819 1052.3622047"
   id="svg2"
   version="1.1"
   inkscape:version="0.91 r13725"
   sodipodi:docname="logo.svg">
  <defs
     id="defs4" />
  <sodipodi:namedview
     id="base"
     pagecolor="#0088aa"
     bordercolor="#666666"
     borderopacity="1.0"
     inkscape:pageopacity="0"
     inkscape:pageshadow="2"
     inkscape:zoom="0.50373353"
     inkscape:cx="-265.58678"
     inkscape:cy="405.01318"
     inkscape:document-units="px"
     inkscape:current-layer="layer1"
     showgrid="false"
     inkscape:window-width="1920"
     inkscape:window-height="1137"
     inkscape:window-x="-8"
     inkscape:window-y="-8"
     inkscape:window-maximized="1" />
  <metadata
     id="metadata7">
    <rdf:RDF>
      <cc:Work
         rdf:about="">
        <dc:format>image/svg+xml</dc:format>
        <dc:type
           rdf:resource="http://purl.org/dc/dcmitype/StillImage" />
        <dc:title></dc:title>
      </cc:Work>
    </rdf:RDF>
  </metadata>
  <g
     inkscape:label="Calque 1"
     inkscape:groupmode="layer"
     id="layer1">
    <path
       style="fill:#ffffff;fill-rule:evenodd;stroke:none;stroke-width:1px;stroke-linecap:butt;stroke-linejoin:miter;stroke-opacity:1"
       d="m 853.40958,1070.9991 c -153.3222,-0.4505 -25.6831,44.1846 -102.7344,176.7403 -77.0512,132.5557 -179.00529,43.734 -102.73434,176.7402 76.27094,133.0062 51.10744,0.1511 204.42964,0.6016 153.32222,0.4505 127.3785,133.1553 204.42962,0.5996 77.0513,-132.5557 -25.4243,-44.3356 -101.69522,-177.3418 -76.2709,-133.0062 51.62682,-176.8893 -101.6953,-177.3399 z m -64.1934,154.0606 c 13.125,11.25 32.2559,16.875 57.3926,16.875 2.6953,0 6.5039,-0.1465 11.4258,-0.4395 4.9219,-0.2929 8.5547,-0.4394 10.8985,-0.4394 20.5664,0 36.2988,6.4746 47.1972,19.4238 8.086,9.5508 14.1504,23.8477 18.1934,42.8906 1.5234,7.3829 2.2851,13.9747 2.2851,19.7754 0,31.1719 -19.4238,46.7578 -58.2715,46.7578 -6.0937,0 -14.6777,-0.3808 -25.7519,-1.1425 -11.0156,-0.7618 -18.8965,-1.1426 -23.6426,-1.1426 -13.1836,0 -22.8808,2.2851 -29.0918,6.8555 l -1.8457,-22.5 c 4.3359,-2.8711 8.8477,-4.3067 13.5352,-4.3067 3.164,0 6.2109,0.7617 9.1406,2.2852 -9.9609,-26.1328 -14.9414,-56.4844 -14.9414,-91.0547 0,-4.336 -1.6406,-7.3242 -4.9219,-8.9649 -0.3516,-0.1757 -3.8672,-1.1425 -10.5469,-2.9003 -1.1718,-0.4688 -1.7578,-4.0137 -1.7578,-10.6348 0,-6.6211 0.2344,-10.4004 0.7031,-11.3379 z m 57.2169,45.8789 c -1.5235,0 -2.5489,0.059 -3.0762,0.1758 -1.2891,5.8594 -1.9336,12.3926 -1.9336,19.5996 0,14.7656 1.9043,27.8027 5.7129,39.1113 5.039,2.7539 13.5058,4.1309 25.4004,4.1309 12.7148,0 22.6757,-2.1387 29.8828,-6.416 7.7929,-4.5703 11.6894,-11.25 11.6894,-20.0391 0,-9.9609 -4.3359,-17.7539 -13.0078,-23.3789 -5.6836,-3.75 -14.7363,-7.1191 -27.1582,-10.1074 -8.4375,-2.0508 -17.6074,-3.0762 -27.5097,-3.0762 z"
       id="path3336"
       inkscape:connector-curvature="0" />
    <g
       id="g4153"
       transform="translate(-91.428571,422.85714)">
      <path
         transform="matrix(0.78492095,0.61959592,-0.61959592,0.78492095,428.69798,445.26296)"
         inkscape:transform-center-y="-54.209505"
         inkscape:transform-center-x="-1.3782542"
         d="M 347.14284,493.79076 C 226.51787,588.43496 328.58632,677.12522 186.30955,619.98304 44.032782,562.84085 179.09229,569.38757 157.4405,417.60119 135.7887,265.81479 7.9464576,309.86354 128.57143,215.21933 c 120.62496,-94.6442 47.42558,19.0474 189.70235,76.18959 142.27677,57.1422 168.05056,-75.59681 189.70236,76.18959 21.6518,151.78638 -40.20833,31.54806 -160.8333,126.19225 z"
         inkscape:randomized="0"
         inkscape:rounded="0.75"
         inkscape:flatsided="false"
         sodipodi:arg2="1.9527045"
         sodipodi:arg1="0.9055069"
         sodipodi:r2="236.05603"
         sodipodi:r1="118.02801"
         sodipodi:cy="400.93362"
         sodipodi:cx="274.28571"
         sodipodi:sides="3"
         id="path4171"
         style="fill:#ffffff;fill-rule:evenodd;stroke:none;stroke-width:10;stroke-linecap:round;stroke-linejoin:round;stroke-miterlimit:4;stroke-dasharray:none;stroke-opacity:1"
         sodipodi:type="star" />
      <text
         sodipodi:linespacing="125%"
         id="text4173"
         y="991.00336"
         x="328.82126"
         style="font-style:normal;font-variant:normal;font-weight:normal;font-stretch:semi-expanded;font-size:180px;line-height:125%;font-family:Ravie;-inkscape-font-specification:'Ravie Semi-Expanded';letter-spacing:0px;word-spacing:0px;fill:#004455;fill-opacity:1;stroke:none;stroke-width:1px;stroke-linecap:butt;stroke-linejoin:miter;stroke-opacity:1"
         xml:space="preserve"><tspan
           y="991.00336"
           x="328.82126"
           id="tspan4175"
           sodipodi:role="line">D</tspan></text>
    </g>
    <g
       id="g4176"
       transform="translate(86.946634,691.72504)"
       inkscape:export-xdpi="90"
       inkscape:export-ydpi="90">
      <rect
         y="-363.56747"
         x="-317.77664"
         height="600"
         width="1240"
         id="rect4160"
         style="fill:#004455;stroke:none;stroke-width:10;stroke-linecap:round;stroke-linejoin:round;stroke-miterlimit:4;stroke-dasharray:none" />
      <path
         style="fill:#ffffff;fill-rule:evenodd;stroke:none;stroke-width:1px;stroke-linecap:butt;stroke-linejoin:miter;stroke-opacity:1"
         d="m 303.07152,-270.33578 c -153.3222,-0.45051 -25.6831,44.18455 -102.7344,176.740238 -77.0512,132.55568 -179.00529,43.73403 -102.73434,176.740232 76.27094,133.00623 51.10744,0.15104 204.42964,0.60157 153.3223,0.45052 127.3785,133.15526 204.4297,0.59961 77.0513,-132.555692 -25.4243,-44.335592 -101.6953,-177.341802 -76.2709,-133.006198 51.6269,-176.889328 -101.6953,-177.339848 z m -64.1934,154.06055 c 13.125,11.25 32.2559,16.874998 57.3926,16.874998 2.6953,0 6.5039,-0.14648 11.4258,-0.43945 4.9219,-0.292968 8.5547,-0.439448 10.8985,-0.439448 20.5664,0 36.2988,6.474598 47.1972,19.423818 8.086,9.55078 14.1504,23.84766 18.1934,42.89063 1.5234,7.38281 2.2851,13.97461 2.2851,19.77539 0,31.17187 -19.4238,46.75781 -58.2715,46.75781 -6.0937,0 -14.6777,-0.38086 -25.7519,-1.14258 -11.0156,-0.76172 -18.8965,-1.14257 -23.6426,-1.14257 -13.1836,0 -22.8808,2.28515 -29.0918,6.85546 l -1.8457,-22.5 c 4.3359,-2.87109 8.8477,-4.30664 13.5352,-4.30664 3.164,0 6.2109,0.76172 9.1406,2.28516 -9.9609,-26.13281 -14.9414,-56.48438 -14.9414,-91.05469 0,-4.33594 -1.6406,-7.32422 -4.9219,-8.96484 -0.3516,-0.17578 -3.8672,-1.14258 -10.5469,-2.90039 -1.1718,-0.46875 -1.7578,-4.01367 -1.7578,-10.634768 0,-6.62109 0.2344,-10.40039 0.7031,-11.33789 z m 57.2169,45.878908 c -1.5235,0 -2.5489,0.0586 -3.0762,0.17578 -1.2891,5.85937 -1.9336,12.39258 -1.9336,19.59961 0,14.76562 1.9043,27.80273 5.7129,39.11133 5.039,2.7539 13.5058,4.13086 25.4004,4.13086 12.7148,0 22.6757,-2.13868 29.8828,-6.41602 7.7929,-4.57031 11.6894,-11.25 11.6894,-20.03906 0,-9.96094 -4.3359,-17.75391 -13.0078,-23.37891 -5.6836,-3.75 -14.7363,-7.11914 -27.1582,-10.10742 -8.4375,-2.05078 -17.6074,-3.07617 -27.5097,-3.07617 z"
         id="path4158"
         inkscape:connector-curvature="0" />
      <text
         sodipodi:linespacing="125%"
         id="text4166"
         y="-301.67294"
         x="151.30052"
         style="font-style:normal;font-variant:normal;font-weight:bold;font-stretch:normal;font-size:60px;line-height:125%;font-family:'Liberation Sans';-inkscape-font-specification:'Liberation Sans Bold';letter-spacing:0px;word-spacing:0px;fill:#ffffff;fill-opacity:1;stroke:none;stroke-width:1px;stroke-linecap:butt;stroke-linejoin:miter;stroke-opacity:1"
         xml:space="preserve"><tspan
           y="-301.67294"
           x="151.30052"
           id="tspan4168"
           sodipodi:role="line">DOMOJEE</tspan></text>
      <text
         sodipodi:linespacing="125%"
         id="text4170"
         y="209.15227"
         x="-4.8469453"
         style="font-style:normal;font-variant:normal;font-weight:bold;font-stretch:normal;font-size:35px;line-height:125%;font-family:sans-serif;-inkscape-font-specification:'sans-serif Bold';letter-spacing:0px;word-spacing:0px;fill:#ffffff;fill-opacity:1;stroke:none;stroke-width:1px;stroke-linecap:butt;stroke-linejoin:miter;stroke-opacity:1"
         xml:space="preserve"><tspan
           y="209.15227"
           x="-4.8469453"
           id="tspan4172"
           sodipodi:role="line">Contrôlez votre box domotique</tspan></text>
    </g>
    <g
       id="g4196"
       transform="translate(-408.57143,711.42857)"
       inkscape:export-xdpi="90"
       inkscape:export-ydpi="90">
      <path
         sodipodi:type="star"
         style="fill:none;fill-rule:evenodd;stroke:#ffffff;stroke-width:10;stroke-linecap:round;stroke-linejoin:round;stroke-miterlimit:4;stroke-dasharray:none;stroke-opacity:1"
         id="path3349"
         sodipodi:sides="3"
         sodipodi:cx="274.28571"
         sodipodi:cy="400.93362"
         sodipodi:r1="118.02801"
         sodipodi:r2="236.05603"
         sodipodi:arg1="0.9055069"
         sodipodi:arg2="1.9527045"
         inkscape:flatsided="false"
         inkscape:rounded="0.75"
         inkscape:randomized="0"
         d="M 347.14284,493.79076 C 226.51787,588.43496 328.58632,677.12522 186.30955,619.98304 44.032782,562.84085 179.09229,569.38757 157.4405,417.60119 135.7887,265.81479 7.9464576,309.86354 128.57143,215.21933 c 120.62496,-94.6442 47.42558,19.0474 189.70235,76.18959 142.27677,57.1422 168.05056,-75.59681 189.70236,76.18959 21.6518,151.78638 -40.20833,31.54806 -160.8333,126.19225 z"
         inkscape:transform-center-x="-1.3782542"
         inkscape:transform-center-y="-54.209505"
         transform="matrix(0.78492095,0.61959592,-0.61959592,0.78492095,-185.58774,45.262956)" />
      <text
         xml:space="preserve"
         style="font-style:normal;font-variant:normal;font-weight:normal;font-stretch:semi-expanded;font-size:180px;line-height:125%;font-family:Ravie;-inkscape-font-specification:'Ravie Semi-Expanded';letter-spacing:0px;word-spacing:0px;fill:#ffffff;fill-opacity:1;stroke:none;stroke-width:1px;stroke-linecap:butt;stroke-linejoin:miter;stroke-opacity:1"
         x="-285.46445"
         y="591.00336"
         id="text3351"
         sodipodi:linespacing="125%"><tspan
           sodipodi:role="line"
           id="tspan3353"
           x="-285.46445"
           y="591.00336">D</tspan></text>
    </g>
    <g
       id="g4210"
       transform="translate(119.07547,141.41278)"
       inkscape:export-xdpi="90"
       inkscape:export-ydpi="90">
      <rect
         style="fill:none;stroke:none;stroke-width:10;stroke-linecap:round;stroke-linejoin:round;stroke-miterlimit:4;stroke-dasharray:none"
         id="rect4200"
         width="48"
         height="48"
         x="-1060.5447"
         y="5.1326904" />
      <g
         inkscape:export-ydpi="90"
         inkscape:export-xdpi="90"
         transform="matrix(0.07556125,0,0,0.07556125,-1020.0068,-8.6932915)"
         id="g4202">
        <path
           transform="matrix(0.78492095,0.61959592,-0.61959592,0.78492095,-185.58774,45.262956)"
           inkscape:transform-center-y="-54.209505"
           inkscape:transform-center-x="-1.3782542"
           d="M 347.14284,493.79076 C 226.51787,588.43496 328.58632,677.12522 186.30955,619.98304 44.032782,562.84085 179.09229,569.38757 157.4405,417.60119 135.7887,265.81479 7.9464576,309.86354 128.57143,215.21933 c 120.62496,-94.6442 47.42558,19.0474 189.70235,76.18959 142.27677,57.1422 168.05056,-75.59681 189.70236,76.18959 21.6518,151.78638 -40.20833,31.54806 -160.8333,126.19225 z"
           inkscape:randomized="0"
           inkscape:rounded="0.75"
           inkscape:flatsided="false"
           sodipodi:arg2="1.9527045"
           sodipodi:arg1="0.9055069"
           sodipodi:r2="236.05603"
           sodipodi:r1="118.02801"
           sodipodi:cy="400.93362"
           sodipodi:cx="274.28571"
           sodipodi:sides="3"
           id="path4204"
           style="fill:none;fill-rule:evenodd;stroke:#ffffff;stroke-width:10;stroke-linecap:round;stroke-linejoin:round;stroke-miterlimit:4;stroke-dasharray:none;stroke-opacity:1"
           sodipodi:type="star" />
        <text
           sodipodi:linespacing="125%"
           id="text4206"
           y="591.00336"
           x="-285.46445"
           style="font-style:normal;font-variant:normal;font-weight:normal;font-stretch:semi-expanded;font-size:180px;line-height:125%;font-family:Ravie;-inkscape-font-specification:'Ravie Semi-Expanded';letter-spacing:0px;word-spacing:0px;fill:#ffffff;fill-opacity:1;stroke:none;stroke-width:1px;stroke-linecap:butt;stroke-linejoin:miter;stroke-opacity:1"
           xml:space="preserve"><tspan
             y="591.00336"
             x="-285.46445"
             id="tspan4208"
             sodipodi:role="line">D</tspan></text>
      </g>
    </g>
    <g
       id="g4221"
       inkscape:export-xdpi="90"
       inkscape:export-ydpi="90">
      <rect
         y="-23.6035"
         x="-466.51651"
         height="300"
         width="300"
         id="rect4219"
         style="fill:#000000;stroke:none;stroke-width:10;stroke-linecap:round;stroke-linejoin:round;stroke-miterlimit:4;stroke-dasharray:none;opacity:0" />
      <path
         style="fill:#ffffff;fill-rule:evenodd;stroke:none;stroke-width:1px;stroke-linecap:butt;stroke-linejoin:miter;stroke-opacity:1"
         d="m -316.02206,5.8607907 c -89.37925,-0.262619 -14.97198,25.7574333 -59.88907,103.0308393 -44.91703,77.27341 -104.35121,25.49476 -59.88903,103.03078 44.46218,77.53603 29.79311,0.088 119.17235,0.3507 89.37927,0.26262 74.25536,77.62295 119.17234,0.34955 44.9171,-77.27342 -14.8211,-25.84547 -59.28326,-103.38149 C -301.20089,31.705143 -226.64286,6.1234677 -316.02206,5.8607907 Z M -353.44363,95.67049 c 7.65122,6.5582 18.80358,9.83729 33.45703,9.83729 1.57124,0 3.79146,-0.0854 6.66069,-0.2562 2.86922,-0.17076 4.98696,-0.25615 6.35328,-0.25615 11.9892,0 21.1604,3.77437 27.51364,11.32311 4.71373,5.56764 8.24898,13.90203 10.60584,25.00308 0.88807,4.30387 1.33211,8.14658 1.33211,11.5281 0,18.17167 -11.32312,27.25747 -33.9694,27.25747 -3.55232,0 -8.55638,-0.22199 -15.01209,-0.66602 -6.42155,-0.44409 -11.01572,-0.66607 -13.78247,-0.66607 -7.68538,0 -13.33836,1.33209 -16.95907,3.99641 l -1.07595,-13.11639 c 2.52761,-1.6737 5.15777,-2.51058 7.89034,-2.51058 1.84446,0 3.62065,0.44403 5.32852,1.33215 -5.80672,-15.23413 -8.7101,-32.92761 -8.7101,-53.08038 0,-2.52767 -0.95638,-4.26965 -2.86922,-5.22609 -0.20497,-0.10242 -2.25438,-0.66602 -6.14832,-1.69073 -0.68309,-0.27329 -1.02471,-2.33978 -1.02471,-6.19956 0,-3.85978 0.13665,-6.06292 0.40988,-6.60944 z m 33.35461,26.74513 c -0.88812,0 -1.48588,0.0344 -1.79326,0.10249 -0.75149,3.41573 -1.1272,7.22426 -1.1272,11.42558 0,8.60762 1.11012,16.2076 3.33033,22.79996 2.9375,1.60538 7.87322,2.4081 14.80718,2.4081 7.41211,0 13.21882,-1.24675 17.4202,-3.7402 4.54288,-2.66426 6.81434,-6.55819 6.81434,-11.68181 0,-5.8067 -2.52762,-10.34964 -7.5829,-13.62874 -3.31326,-2.18607 -8.59053,-4.15008 -15.83189,-5.89211 -4.91864,-1.19551 -10.26425,-1.79327 -16.0368,-1.79327 z"
         id="path4217"
         inkscape:connector-curvature="0" />
    </g>
    <g
       inkscape:export-ydpi="90"
       inkscape:export-xdpi="90"
       id="g4229"
       transform="matrix(0.29333333,0,0,0.29333333,-609.58157,626.10351)">
      <rect
         style="opacity:0;fill:#000000;stroke:none;stroke-width:10;stroke-linecap:round;stroke-linejoin:round;stroke-miterlimit:4;stroke-dasharray:none"
         id="rect4231"
         width="300"
         height="300"
         x="-466.51651"
         y="-23.6035" />
      <path
         inkscape:connector-curvature="0"
         id="path4233"
         d="m -316.02206,5.8607907 c -89.37925,-0.262619 -14.97198,25.7574333 -59.88907,103.0308393 -44.91703,77.27341 -104.35121,25.49476 -59.88903,103.03078 44.46218,77.53603 29.79311,0.088 119.17235,0.3507 89.37927,0.26262 74.25536,77.62295 119.17234,0.34955 44.9171,-77.27342 -14.8211,-25.84547 -59.28326,-103.38149 C -301.20089,31.705143 -226.64286,6.1234677 -316.02206,5.8607907 Z M -353.44363,95.67049 c 7.65122,6.5582 18.80358,9.83729 33.45703,9.83729 1.57124,0 3.79146,-0.0854 6.66069,-0.2562 2.86922,-0.17076 4.98696,-0.25615 6.35328,-0.25615 11.9892,0 21.1604,3.77437 27.51364,11.32311 4.71373,5.56764 8.24898,13.90203 10.60584,25.00308 0.88807,4.30387 1.33211,8.14658 1.33211,11.5281 0,18.17167 -11.32312,27.25747 -33.9694,27.25747 -3.55232,0 -8.55638,-0.22199 -15.01209,-0.66602 -6.42155,-0.44409 -11.01572,-0.66607 -13.78247,-0.66607 -7.68538,0 -13.33836,1.33209 -16.95907,3.99641 l -1.07595,-13.11639 c 2.52761,-1.6737 5.15777,-2.51058 7.89034,-2.51058 1.84446,0 3.62065,0.44403 5.32852,1.33215 -5.80672,-15.23413 -8.7101,-32.92761 -8.7101,-53.08038 0,-2.52767 -0.95638,-4.26965 -2.86922,-5.22609 -0.20497,-0.10242 -2.25438,-0.66602 -6.14832,-1.69073 -0.68309,-0.27329 -1.02471,-2.33978 -1.02471,-6.19956 0,-3.85978 0.13665,-6.06292 0.40988,-6.60944 z m 33.35461,26.74513 c -0.88812,0 -1.48588,0.0344 -1.79326,0.10249 -0.75149,3.41573 -1.1272,7.22426 -1.1272,11.42558 0,8.60762 1.11012,16.2076 3.33033,22.79996 2.9375,1.60538 7.87322,2.4081 14.80718,2.4081 7.41211,0 13.21882,-1.24675 17.4202,-3.7402 4.54288,-2.66426 6.81434,-6.55819 6.81434,-11.68181 0,-5.8067 -2.52762,-10.34964 -7.5829,-13.62874 -3.31326,-2.18607 -8.59053,-4.15008 -15.83189,-5.89211 -4.91864,-1.19551 -10.26425,-1.79327 -16.0368,-1.79327 z"
         style="fill:#ffffff;fill-rule:evenodd;stroke:none;stroke-width:1px;stroke-linecap:butt;stroke-linejoin:miter;stroke-opacity:1" />
    </g>
    <g
       inkscape:export-ydpi="90"
       inkscape:export-xdpi="90"
       transform="matrix(0.5,0,0,0.5,-508.47053,463.77044)"
       id="g4241">
      <rect
         y="5.1326904"
         x="-1060.5447"
         height="48"
         width="48"
         id="rect4243"
         style="fill:none;stroke:none;stroke-width:10;stroke-linecap:round;stroke-linejoin:round;stroke-miterlimit:4;stroke-dasharray:none" />
      <g
         id="g4245"
         transform="matrix(0.07556125,0,0,0.07556125,-1020.0068,-8.6932915)"
         inkscape:export-xdpi="90"
         inkscape:export-ydpi="90">
        <path
           sodipodi:type="star"
           style="fill:none;fill-rule:evenodd;stroke:#ffffff;stroke-width:10;stroke-linecap:round;stroke-linejoin:round;stroke-miterlimit:4;stroke-dasharray:none;stroke-opacity:1"
           id="path4247"
           sodipodi:sides="3"
           sodipodi:cx="274.28571"
           sodipodi:cy="400.93362"
           sodipodi:r1="118.02801"
           sodipodi:r2="236.05603"
           sodipodi:arg1="0.9055069"
           sodipodi:arg2="1.9527045"
           inkscape:flatsided="false"
           inkscape:rounded="0.75"
           inkscape:randomized="0"
           d="M 347.14284,493.79076 C 226.51787,588.43496 328.58632,677.12522 186.30955,619.98304 44.032782,562.84085 179.09229,569.38757 157.4405,417.60119 135.7887,265.81479 7.9464576,309.86354 128.57143,215.21933 c 120.62496,-94.6442 47.42558,19.0474 189.70235,76.18959 142.27677,57.1422 168.05056,-75.59681 189.70236,76.18959 21.6518,151.78638 -40.20833,31.54806 -160.8333,126.19225 z"
           inkscape:transform-center-x="-1.3782542"
           inkscape:transform-center-y="-54.209505"
           transform="matrix(0.78492095,0.61959592,-0.61959592,0.78492095,-185.58774,45.262956)" />
        <text
           xml:space="preserve"
           style="font-style:normal;font-variant:normal;font-weight:normal;font-stretch:semi-expanded;font-size:180px;line-height:125%;font-family:Ravie;-inkscape-font-specification:'Ravie Semi-Expanded';letter-spacing:0px;word-spacing:0px;fill:#ffffff;fill-opacity:1;stroke:none;stroke-width:1px;stroke-linecap:butt;stroke-linejoin:miter;stroke-opacity:1"
           x="-285.46445"
           y="591.00336"
           id="text4249"
           sodipodi:linespacing="125%"><tspan
             sodipodi:role="line"
             id="tspan4251"
             x="-285.46445"
             y="591.00336">D</tspan></text>
      </g>
    </g>
    <g
       transform="matrix(0.16666667,0,0,0.16666667,-287.51976,655.1582)"
       id="g4253"
       inkscape:export-xdpi="90"
       inkscape:export-ydpi="90">
      <rect
         y="-23.6035"
         x="-466.51651"
         height="300"
         width="300"
         id="rect4255"
         style="opacity:0;fill:#000000;stroke:none;stroke-width:10;stroke-linecap:round;stroke-linejoin:round;stroke-miterlimit:4;stroke-dasharray:none" />
      <path
         style="fill:#ffffff;fill-rule:evenodd;stroke:none;stroke-width:1px;stroke-linecap:butt;stroke-linejoin:miter;stroke-opacity:1"
         d="m -316.02206,5.8607907 c -89.37925,-0.262619 -14.97198,25.7574333 -59.88907,103.0308393 -44.91703,77.27341 -104.35121,25.49476 -59.88903,103.03078 44.46218,77.53603 29.79311,0.088 119.17235,0.3507 89.37927,0.26262 74.25536,77.62295 119.17234,0.34955 44.9171,-77.27342 -14.8211,-25.84547 -59.28326,-103.38149 C -301.20089,31.705143 -226.64286,6.1234677 -316.02206,5.8607907 Z M -353.44363,95.67049 c 7.65122,6.5582 18.80358,9.83729 33.45703,9.83729 1.57124,0 3.79146,-0.0854 6.66069,-0.2562 2.86922,-0.17076 4.98696,-0.25615 6.35328,-0.25615 11.9892,0 21.1604,3.77437 27.51364,11.32311 4.71373,5.56764 8.24898,13.90203 10.60584,25.00308 0.88807,4.30387 1.33211,8.14658 1.33211,11.5281 0,18.17167 -11.32312,27.25747 -33.9694,27.25747 -3.55232,0 -8.55638,-0.22199 -15.01209,-0.66602 -6.42155,-0.44409 -11.01572,-0.66607 -13.78247,-0.66607 -7.68538,0 -13.33836,1.33209 -16.95907,3.99641 l -1.07595,-13.11639 c 2.52761,-1.6737 5.15777,-2.51058 7.89034,-2.51058 1.84446,0 3.62065,0.44403 5.32852,1.33215 -5.80672,-15.23413 -8.7101,-32.92761 -8.7101,-53.08038 0,-2.52767 -0.95638,-4.26965 -2.86922,-5.22609 -0.20497,-0.10242 -2.25438,-0.66602 -6.14832,-1.69073 -0.68309,-0.27329 -1.02471,-2.33978 -1.02471,-6.19956 0,-3.85978 0.13665,-6.06292 0.40988,-6.60944 z m 33.35461,26.74513 c -0.88812,0 -1.48588,0.0344 -1.79326,0.10249 -0.75149,3.41573 -1.1272,7.22426 -1.1272,11.42558 0,8.60762 1.11012,16.2076 3.33033,22.79996 2.9375,1.60538 7.87322,2.4081 14.80718,2.4081 7.41211,0 13.21882,-1.24675 17.4202,-3.7402 4.54288,-2.66426 6.81434,-6.55819 6.81434,-11.68181 0,-5.8067 -2.52762,-10.34964 -7.5829,-13.62874 -3.31326,-2.18607 -8.59053,-4.15008 -15.83189,-5.89211 -4.91864,-1.19551 -10.26425,-1.79327 -16.0368,-1.79327 z"
         id="path4257"
         inkscape:connector-curvature="0" />
    </g>
    <g
       inkscape:export-ydpi="90"
       inkscape:export-xdpi="90"
       transform="matrix(0.5,0,0,0.5,-1384.1434,899.27425)"
       id="g4259">
      <rect
         style="fill:#004455;stroke:none;stroke-width:10;stroke-linecap:round;stroke-linejoin:round;stroke-miterlimit:4;stroke-dasharray:none"
         id="rect4261"
         width="1240"
         height="600"
         x="-317.77664"
         y="-363.56747" />
      <path
         inkscape:connector-curvature="0"
         id="path4263"
         d="m 303.07152,-270.33578 c -153.3222,-0.45051 -25.6831,44.18455 -102.7344,176.740238 -77.0512,132.55568 -179.00529,43.73403 -102.73434,176.740232 76.27094,133.00623 51.10744,0.15104 204.42964,0.60157 153.3223,0.45052 127.3785,133.15526 204.4297,0.59961 77.0513,-132.555692 -25.4243,-44.335592 -101.6953,-177.341802 -76.2709,-133.006198 51.6269,-176.889328 -101.6953,-177.339848 z m -64.1934,154.06055 c 13.125,11.25 32.2559,16.874998 57.3926,16.874998 2.6953,0 6.5039,-0.14648 11.4258,-0.43945 4.9219,-0.292968 8.5547,-0.439448 10.8985,-0.439448 20.5664,0 36.2988,6.474598 47.1972,19.423818 8.086,9.55078 14.1504,23.84766 18.1934,42.89063 1.5234,7.38281 2.2851,13.97461 2.2851,19.77539 0,31.17187 -19.4238,46.75781 -58.2715,46.75781 -6.0937,0 -14.6777,-0.38086 -25.7519,-1.14258 -11.0156,-0.76172 -18.8965,-1.14257 -23.6426,-1.14257 -13.1836,0 -22.8808,2.28515 -29.0918,6.85546 l -1.8457,-22.5 c 4.3359,-2.87109 8.8477,-4.30664 13.5352,-4.30664 3.164,0 6.2109,0.76172 9.1406,2.28516 -9.9609,-26.13281 -14.9414,-56.48438 -14.9414,-91.05469 0,-4.33594 -1.6406,-7.32422 -4.9219,-8.96484 -0.3516,-0.17578 -3.8672,-1.14258 -10.5469,-2.90039 -1.1718,-0.46875 -1.7578,-4.01367 -1.7578,-10.634768 0,-6.62109 0.2344,-10.40039 0.7031,-11.33789 z m 57.2169,45.878908 c -1.5235,0 -2.5489,0.0586 -3.0762,0.17578 -1.2891,5.85937 -1.9336,12.39258 -1.9336,19.59961 0,14.76562 1.9043,27.80273 5.7129,39.11133 5.039,2.7539 13.5058,4.13086 25.4004,4.13086 12.7148,0 22.6757,-2.13868 29.8828,-6.41602 7.7929,-4.57031 11.6894,-11.25 11.6894,-20.03906 0,-9.96094 -4.3359,-17.75391 -13.0078,-23.37891 -5.6836,-3.75 -14.7363,-7.11914 -27.1582,-10.10742 -8.4375,-2.05078 -17.6074,-3.07617 -27.5097,-3.07617 z"
         style="fill:#ffffff;fill-rule:evenodd;stroke:none;stroke-width:1px;stroke-linecap:butt;stroke-linejoin:miter;stroke-opacity:1" />
      <text
         xml:space="preserve"
         style="font-style:normal;font-variant:normal;font-weight:bold;font-stretch:normal;font-size:60px;line-height:125%;font-family:'Liberation Sans';-inkscape-font-specification:'Liberation Sans Bold';letter-spacing:0px;word-spacing:0px;fill:#ffffff;fill-opacity:1;stroke:none;stroke-width:1px;stroke-linecap:butt;stroke-linejoin:miter;stroke-opacity:1"
         x="151.30052"
         y="-301.67294"
         id="text4265"
         sodipodi:linespacing="125%"><tspan
           sodipodi:role="line"
           id="tspan4267"
           x="151.30052"
           y="-301.67294">DOMOJEE</tspan></text>
      <text
         xml:space="preserve"
         style="font-style:normal;font-variant:normal;font-weight:bold;font-stretch:normal;font-size:35px;line-height:125%;font-family:sans-serif;-inkscape-font-specification:'sans-serif Bold';letter-spacing:0px;word-spacing:0px;fill:#ffffff;fill-opacity:1;stroke:none;stroke-width:1px;stroke-linecap:butt;stroke-linejoin:miter;stroke-opacity:1"
         x="-4.8469453"
         y="209.15227"
         id="text4269"
         sodipodi:linespacing="125%"><tspan
           sodipodi:role="line"
           id="tspan4271"
           x="-4.8469453"
           y="209.15227">Contrôlez votre box domotique</tspan></text>
    </g>
    <g
       transform="matrix(0.08,0,0,0.08,-695.20885,514.34291)"
       id="g4273"
       inkscape:export-xdpi="90"
       inkscape:export-ydpi="90">
      <rect
         y="-23.6035"
         x="-466.51651"
         height="300"
         width="300"
         id="rect4275"
         style="opacity:0;fill:#000000;stroke:none;stroke-width:10;stroke-linecap:round;stroke-linejoin:round;stroke-miterlimit:4;stroke-dasharray:none" />
      <path
         style="fill:#ffffff;fill-rule:evenodd;stroke:none;stroke-width:1px;stroke-linecap:butt;stroke-linejoin:miter;stroke-opacity:1"
         d="m -316.02206,5.8607907 c -89.37925,-0.262619 -14.97198,25.7574333 -59.88907,103.0308393 -44.91703,77.27341 -104.35121,25.49476 -59.88903,103.03078 44.46218,77.53603 29.79311,0.088 119.17235,0.3507 89.37927,0.26262 74.25536,77.62295 119.17234,0.34955 44.9171,-77.27342 -14.8211,-25.84547 -59.28326,-103.38149 C -301.20089,31.705143 -226.64286,6.1234677 -316.02206,5.8607907 Z M -353.44363,95.67049 c 7.65122,6.5582 18.80358,9.83729 33.45703,9.83729 1.57124,0 3.79146,-0.0854 6.66069,-0.2562 2.86922,-0.17076 4.98696,-0.25615 6.35328,-0.25615 11.9892,0 21.1604,3.77437 27.51364,11.32311 4.71373,5.56764 8.24898,13.90203 10.60584,25.00308 0.88807,4.30387 1.33211,8.14658 1.33211,11.5281 0,18.17167 -11.32312,27.25747 -33.9694,27.25747 -3.55232,0 -8.55638,-0.22199 -15.01209,-0.66602 -6.42155,-0.44409 -11.01572,-0.66607 -13.78247,-0.66607 -7.68538,0 -13.33836,1.33209 -16.95907,3.99641 l -1.07595,-13.11639 c 2.52761,-1.6737 5.15777,-2.51058 7.89034,-2.51058 1.84446,0 3.62065,0.44403 5.32852,1.33215 -5.80672,-15.23413 -8.7101,-32.92761 -8.7101,-53.08038 0,-2.52767 -0.95638,-4.26965 -2.86922,-5.22609 -0.20497,-0.10242 -2.25438,-0.66602 -6.14832,-1.69073 -0.68309,-0.27329 -1.02471,-2.33978 -1.02471,-6.19956 0,-3.85978 0.13665,-6.06292 0.40988,-6.60944 z m 33.35461,26.74513 c -0.88812,0 -1.48588,0.0344 -1.79326,0.10249 -0.75149,3.41573 -1.1272,7.22426 -1.1272,11.42558 0,8.60762 1.11012,16.2076 3.33033,22.79996 2.9375,1.60538 7.87322,2.4081 14.80718,2.4081 7.41211,0 13.21882,-1.24675 17.4202,-3.7402 4.54288,-2.66426 6.81434,-6.55819 6.81434,-11.68181 0,-5.8067 -2.52762,-10.34964 -7.5829,-13.62874 -3.31326,-2.18607 -8.59053,-4.15008 -15.83189,-5.89211 -4.91864,-1.19551 -10.26425,-1.79327 -16.0368,-1.79327 z"
         id="path4277"
         inkscape:connector-curvature="0" />
    </g>
  </g>
</svg>
